<mxfile host="Electron" modified="2024-04-01T08:54:28.375Z" agent="Mozilla/5.0 (Macintosh; Intel Mac OS X 10_15_7) AppleWebKit/537.36 (KHTML, like Gecko) draw.io/22.1.21 Chrome/120.0.6099.109 Electron/28.1.0 Safari/537.36" etag="aUo5SfeUwFYWZfvoTH32" version="22.1.21" type="device">
  <diagram name="Page-1" id="e7e014a7-5840-1c2e-5031-d8a46d1fe8dd">
    <mxGraphModel dx="1193" dy="1309" grid="0" gridSize="10" guides="1" tooltips="1" connect="1" arrows="1" fold="1" page="0" pageScale="1" pageWidth="1169" pageHeight="826" background="none" math="0" shadow="0">
      <root>
        <mxCell id="0" />
        <mxCell id="1" parent="0" />
        <mxCell id="AEkgd0TTaPG08XZ5x6PQ-45" value="" style="edgeStyle=orthogonalEdgeStyle;rounded=0;orthogonalLoop=1;jettySize=auto;html=1;fontStyle=1" edge="1" parent="1" source="AEkgd0TTaPG08XZ5x6PQ-41" target="AEkgd0TTaPG08XZ5x6PQ-44">
          <mxGeometry relative="1" as="geometry" />
        </mxCell>
        <mxCell id="AEkgd0TTaPG08XZ5x6PQ-41" value="" style="ellipse;whiteSpace=wrap;html=1;aspect=fixed;fontStyle=1" vertex="1" parent="1">
          <mxGeometry x="334" y="-93" width="33" height="33" as="geometry" />
        </mxCell>
        <mxCell id="AEkgd0TTaPG08XZ5x6PQ-47" value="No" style="edgeStyle=orthogonalEdgeStyle;rounded=0;orthogonalLoop=1;jettySize=auto;html=1;fontStyle=1" edge="1" parent="1" source="AEkgd0TTaPG08XZ5x6PQ-44" target="AEkgd0TTaPG08XZ5x6PQ-46">
          <mxGeometry relative="1" as="geometry" />
        </mxCell>
        <mxCell id="AEkgd0TTaPG08XZ5x6PQ-49" value="Yes" style="edgeStyle=orthogonalEdgeStyle;rounded=0;orthogonalLoop=1;jettySize=auto;html=1;fontStyle=1" edge="1" parent="1" source="AEkgd0TTaPG08XZ5x6PQ-44" target="AEkgd0TTaPG08XZ5x6PQ-48">
          <mxGeometry relative="1" as="geometry" />
        </mxCell>
        <mxCell id="AEkgd0TTaPG08XZ5x6PQ-44" value="&lt;span&gt;Login&lt;/span&gt;" style="rhombus;whiteSpace=wrap;html=1;fontStyle=1" vertex="1" parent="1">
          <mxGeometry x="311.25" y="9" width="78.5" height="70" as="geometry" />
        </mxCell>
        <mxCell id="AEkgd0TTaPG08XZ5x6PQ-61" value="" style="edgeStyle=orthogonalEdgeStyle;rounded=0;orthogonalLoop=1;jettySize=auto;html=1;fontStyle=1" edge="1" parent="1" source="AEkgd0TTaPG08XZ5x6PQ-46" target="AEkgd0TTaPG08XZ5x6PQ-60">
          <mxGeometry relative="1" as="geometry" />
        </mxCell>
        <mxCell id="AEkgd0TTaPG08XZ5x6PQ-46" value="Enter the Details" style="whiteSpace=wrap;html=1;fontStyle=1" vertex="1" parent="1">
          <mxGeometry x="468" y="14" width="120" height="60" as="geometry" />
        </mxCell>
        <mxCell id="AEkgd0TTaPG08XZ5x6PQ-51" value="" style="edgeStyle=orthogonalEdgeStyle;rounded=0;orthogonalLoop=1;jettySize=auto;html=1;fontStyle=1" edge="1" parent="1" source="AEkgd0TTaPG08XZ5x6PQ-48" target="AEkgd0TTaPG08XZ5x6PQ-50">
          <mxGeometry relative="1" as="geometry" />
        </mxCell>
        <mxCell id="AEkgd0TTaPG08XZ5x6PQ-48" value="Enter username&amp;nbsp;&lt;br&gt;and&lt;br&gt;Password" style="whiteSpace=wrap;html=1;fontStyle=1" vertex="1" parent="1">
          <mxGeometry x="290" y="190" width="120" height="60" as="geometry" />
        </mxCell>
        <mxCell id="AEkgd0TTaPG08XZ5x6PQ-53" value="&lt;span style=&quot;&quot;&gt;No&lt;/span&gt;" style="edgeStyle=orthogonalEdgeStyle;rounded=0;orthogonalLoop=1;jettySize=auto;html=1;fontStyle=1" edge="1" parent="1" source="AEkgd0TTaPG08XZ5x6PQ-50" target="AEkgd0TTaPG08XZ5x6PQ-52">
          <mxGeometry relative="1" as="geometry" />
        </mxCell>
        <mxCell id="AEkgd0TTaPG08XZ5x6PQ-64" value="Yes" style="edgeStyle=orthogonalEdgeStyle;rounded=0;orthogonalLoop=1;jettySize=auto;html=1;fontStyle=1" edge="1" parent="1" source="AEkgd0TTaPG08XZ5x6PQ-50" target="AEkgd0TTaPG08XZ5x6PQ-63">
          <mxGeometry relative="1" as="geometry" />
        </mxCell>
        <mxCell id="AEkgd0TTaPG08XZ5x6PQ-50" value="&lt;span&gt;Valid&lt;/span&gt;" style="rhombus;whiteSpace=wrap;html=1;fontStyle=1" vertex="1" parent="1">
          <mxGeometry x="310" y="320" width="80" height="58" as="geometry" />
        </mxCell>
        <mxCell id="AEkgd0TTaPG08XZ5x6PQ-56" style="edgeStyle=orthogonalEdgeStyle;rounded=0;orthogonalLoop=1;jettySize=auto;html=1;entryX=0;entryY=0.5;entryDx=0;entryDy=0;fontStyle=1" edge="1" parent="1" source="AEkgd0TTaPG08XZ5x6PQ-52" target="AEkgd0TTaPG08XZ5x6PQ-48">
          <mxGeometry relative="1" as="geometry">
            <mxPoint x="190" y="210" as="targetPoint" />
            <Array as="points">
              <mxPoint x="186" y="220" />
            </Array>
          </mxGeometry>
        </mxCell>
        <mxCell id="AEkgd0TTaPG08XZ5x6PQ-52" value="&lt;span&gt;Error message&lt;/span&gt;" style="whiteSpace=wrap;html=1;fontStyle=1" vertex="1" parent="1">
          <mxGeometry x="130" y="319" width="120" height="60" as="geometry" />
        </mxCell>
        <mxCell id="AEkgd0TTaPG08XZ5x6PQ-65" style="edgeStyle=orthogonalEdgeStyle;rounded=0;orthogonalLoop=1;jettySize=auto;html=1;entryX=0.5;entryY=0;entryDx=0;entryDy=0;fontStyle=1" edge="1" parent="1" source="AEkgd0TTaPG08XZ5x6PQ-60" target="AEkgd0TTaPG08XZ5x6PQ-63">
          <mxGeometry relative="1" as="geometry" />
        </mxCell>
        <mxCell id="AEkgd0TTaPG08XZ5x6PQ-60" value="Successfull&lt;br&gt;signup" style="whiteSpace=wrap;html=1;fontStyle=1;" vertex="1" parent="1">
          <mxGeometry x="468" y="154" width="120" height="60" as="geometry" />
        </mxCell>
        <mxCell id="AEkgd0TTaPG08XZ5x6PQ-67" value="No" style="edgeStyle=orthogonalEdgeStyle;rounded=0;orthogonalLoop=1;jettySize=auto;html=1;fontStyle=1" edge="1" parent="1" source="AEkgd0TTaPG08XZ5x6PQ-63" target="AEkgd0TTaPG08XZ5x6PQ-66">
          <mxGeometry relative="1" as="geometry" />
        </mxCell>
        <mxCell id="AEkgd0TTaPG08XZ5x6PQ-71" value="Yes" style="edgeStyle=orthogonalEdgeStyle;rounded=0;orthogonalLoop=1;jettySize=auto;html=1;fontStyle=1" edge="1" parent="1" source="AEkgd0TTaPG08XZ5x6PQ-63" target="AEkgd0TTaPG08XZ5x6PQ-70">
          <mxGeometry relative="1" as="geometry" />
        </mxCell>
        <mxCell id="AEkgd0TTaPG08XZ5x6PQ-63" value="&lt;span&gt;Select&amp;nbsp;&lt;br&gt;music player&lt;br&gt;&lt;/span&gt;" style="rhombus;whiteSpace=wrap;html=1;fontStyle=1" vertex="1" parent="1">
          <mxGeometry x="463" y="311" width="130" height="77" as="geometry" />
        </mxCell>
        <mxCell id="AEkgd0TTaPG08XZ5x6PQ-69" value="Yes" style="edgeStyle=orthogonalEdgeStyle;rounded=0;orthogonalLoop=1;jettySize=auto;html=1;fontStyle=1" edge="1" parent="1" source="AEkgd0TTaPG08XZ5x6PQ-66" target="AEkgd0TTaPG08XZ5x6PQ-68">
          <mxGeometry relative="1" as="geometry" />
        </mxCell>
        <mxCell id="AEkgd0TTaPG08XZ5x6PQ-73" value="No" style="edgeStyle=orthogonalEdgeStyle;rounded=0;orthogonalLoop=1;jettySize=auto;html=1;fontStyle=1" edge="1" parent="1" source="AEkgd0TTaPG08XZ5x6PQ-66" target="AEkgd0TTaPG08XZ5x6PQ-72">
          <mxGeometry relative="1" as="geometry">
            <Array as="points">
              <mxPoint x="528" y="642" />
            </Array>
          </mxGeometry>
        </mxCell>
        <mxCell id="AEkgd0TTaPG08XZ5x6PQ-66" value="select&lt;br&gt;&amp;nbsp;downloader" style="rhombus;whiteSpace=wrap;html=1;fontStyle=1;" vertex="1" parent="1">
          <mxGeometry x="465.62" y="445" width="124.75" height="102.5" as="geometry" />
        </mxCell>
        <mxCell id="AEkgd0TTaPG08XZ5x6PQ-77" style="edgeStyle=orthogonalEdgeStyle;rounded=0;orthogonalLoop=1;jettySize=auto;html=1;entryX=0;entryY=0.5;entryDx=0;entryDy=0;fontStyle=1" edge="1" parent="1" source="AEkgd0TTaPG08XZ5x6PQ-68" target="AEkgd0TTaPG08XZ5x6PQ-74">
          <mxGeometry relative="1" as="geometry" />
        </mxCell>
        <mxCell id="AEkgd0TTaPG08XZ5x6PQ-68" value="download the song" style="whiteSpace=wrap;html=1;fontStyle=1;" vertex="1" parent="1">
          <mxGeometry x="668.5" y="466.25" width="120" height="60" as="geometry" />
        </mxCell>
        <mxCell id="AEkgd0TTaPG08XZ5x6PQ-76" style="edgeStyle=orthogonalEdgeStyle;rounded=0;orthogonalLoop=1;jettySize=auto;html=1;entryX=0.5;entryY=0;entryDx=0;entryDy=0;fontStyle=1" edge="1" parent="1" source="AEkgd0TTaPG08XZ5x6PQ-70" target="AEkgd0TTaPG08XZ5x6PQ-74">
          <mxGeometry relative="1" as="geometry" />
        </mxCell>
        <mxCell id="AEkgd0TTaPG08XZ5x6PQ-70" value="play song" style="whiteSpace=wrap;html=1;fontStyle=1;" vertex="1" parent="1">
          <mxGeometry x="668.5" y="319.5" width="120" height="60" as="geometry" />
        </mxCell>
        <mxCell id="AEkgd0TTaPG08XZ5x6PQ-78" style="edgeStyle=orthogonalEdgeStyle;rounded=0;orthogonalLoop=1;jettySize=auto;html=1;entryX=0.5;entryY=1;entryDx=0;entryDy=0;fontStyle=1" edge="1" parent="1" source="AEkgd0TTaPG08XZ5x6PQ-72" target="AEkgd0TTaPG08XZ5x6PQ-74">
          <mxGeometry relative="1" as="geometry" />
        </mxCell>
        <mxCell id="AEkgd0TTaPG08XZ5x6PQ-72" value="recognize the song" style="whiteSpace=wrap;html=1;fontStyle=1;" vertex="1" parent="1">
          <mxGeometry x="668.5" y="605" width="120" height="60" as="geometry" />
        </mxCell>
        <mxCell id="AEkgd0TTaPG08XZ5x6PQ-74" value="" style="ellipse;whiteSpace=wrap;html=1;aspect=fixed;fillColor=#000000;perimeterSpacing=0;strokeWidth=0;strokeColor=none;gradientColor=none;fontStyle=1" vertex="1" parent="1">
          <mxGeometry x="983" y="480.19" width="32.12" height="32.12" as="geometry" />
        </mxCell>
      </root>
    </mxGraphModel>
  </diagram>
</mxfile>
